<?xml version="1.0" encoding="UTF-8"?>
<svg id="Capa_2" xmlns="http://www.w3.org/2000/svg" viewBox="0 0 12.5 17.41">
  <defs>
    <style>
      .cls-1 {
        fill: #00cbb4;
      }
    </style>
  </defs>
  <path class="cls-1" d="M9.4.6H3.12C1.68.6.5,1.78.5,3.22v10.96c0,1.45,1.18,2.62,2.62,2.62h6.28c1.45,0,2.62-1.18,2.62-2.62V3.22c0-1.45-1.18-2.62-2.62-2.62ZM2.2,3.22c0-.51.41-.92.92-.92h6.28c.51,0,.92.41.92.92v10.96c0,.51-.41.92-.92.92H3.12c-.51,0-.92-.41-.92-.92V3.22Z"/>
  <path class="cls-1" d="M7.04,14.19h-1.54c-.47,0-.85-.38-.85-.85h0c0-.47.38-.85.85-.85h1.54c.47,0,.85.38.85.85h0c0,.47-.38.85-.85.85Z"/>
</svg>