<?xml version="1.0" encoding="UTF-8"?>
<svg id="Capa_2" xmlns="http://www.w3.org/2000/svg" viewBox="0 0 16.15 16.7">
  <defs>
    <style>
      .cls-1 {
        fill: #00cbb4;
      }
    </style>
  </defs>
  <path class="cls-1" d="M8.08.73C3.87.73.45,4.15.45,8.35s3.42,7.63,7.62,7.63,7.62-3.42,7.62-7.63S12.28.73,8.08.73ZM14.02,7.54h-2.32c-.08-1.67-.42-3.33-1-4.59,1.77.86,3.05,2.57,3.32,4.59ZM8.08,14.36c-.75,0-1.85-2.05-2.01-5.2h4.02c-.16,3.16-1.26,5.2-2.01,5.2ZM6.06,7.54c.16-3.16,1.26-5.2,2.01-5.2s1.85,2.05,2.01,5.2h-4.02ZM5.45,2.95c-.58,1.26-.92,2.92-1,4.59h-2.32c.27-2.02,1.56-3.73,3.32-4.59ZM2.13,9.16h2.32c.08,1.67.42,3.33,1,4.59-1.77-.86-3.05-2.57-3.32-4.59ZM10.7,13.75c.58-1.26.92-2.92,1-4.59h2.32c-.27,2.02-1.56,3.73-3.32,4.59Z"/>
</svg>