<?xml version="1.0" encoding="UTF-8"?>
<svg id="Capa_2" xmlns="http://www.w3.org/2000/svg" viewBox="0 0 23.54 23.27">
  <defs>
    <style>
      .cls-1 {
        fill: none;
        stroke: #00cbb4;
        stroke-miterlimit: 10;
        stroke-width: 1.42px;
      }

      .cls-2 {
        fill: #00cbb4;
      }
    </style>
  </defs>
  <circle class="cls-1" cx="11.8" cy="11.64" r="10.62"/>
  <g>
    <path class="cls-2" d="M11.84,9.83c-1,0-1.81.81-1.81,1.81s.81,1.81,1.81,1.81,1.81-.81,1.81-1.81-.81-1.81-1.81-1.81Z"/>
    <path class="cls-2" d="M14.08,6.99h-4.57c-1.3,0-2.36,1.06-2.36,2.36v4.57c0,1.3,1.06,2.36,2.36,2.36h4.57c1.3,0,2.36-1.06,2.36-2.36v-4.57c0-1.3-1.06-2.36-2.36-2.36ZM11.84,14.46c-1.55,0-2.82-1.26-2.82-2.82s1.26-2.82,2.82-2.82,2.82,1.26,2.82,2.82-1.26,2.82-2.82,2.82ZM14.83,9.3c-.37,0-.67-.3-.67-.67s.3-.67.67-.67.67.3.67.67-.3.67-.67.67Z"/>
  </g>
</svg>