<?xml version="1.0" encoding="UTF-8"?>
<svg id="Capa_2" xmlns="http://www.w3.org/2000/svg" viewBox="0 0 23.72 23.4">
  <defs>
    <style>
      .cls-1 {
        fill: none;
        stroke: #00cbb4;
        stroke-miterlimit: 10;
        stroke-width: 1.42px;
      }

      .cls-2 {
        fill: #00cbb4;
      }
    </style>
  </defs>
  <circle class="cls-1" cx="12.02" cy="11.76" r="10.62"/>
  <g>
    <rect class="cls-2" x="7.18" y="9.48" width="2.08" height="6.71"/>
    <path class="cls-2" d="M8.21,8.58c.68,0,1.24-.55,1.24-1.24s-.55-1.24-1.24-1.24-1.24.55-1.24,1.24c.03.68.55,1.24,1.24,1.24Z"/>
    <path class="cls-2" d="M12.6,12.66c0-.95.45-1.5,1.26-1.5.76,0,1.13.55,1.13,1.5v3.53h2.08v-4.26c0-1.79-1.03-2.66-2.45-2.66s-2.03,1.1-2.03,1.1v-.89h-2v6.71h2v-3.53Z"/>
  </g>
</svg>